<svg width="1393" height="327" viewBox="0 0 1393 327" fill="none" xmlns="http://www.w3.org/2000/svg">
<path d="M285.108 145.557H276.104V33H285.108V145.557Z" fill="#FCEBC6"/>
<path d="M295.683 130.242L267.288 140.849L265.346 135.654L293.742 125.047L295.683 130.242Z" fill="#B82831"/>
<path d="M295.683 118.737L267.288 129.343L265.346 124.147L293.742 113.541L295.683 118.737Z" fill="#B82831"/>
<path d="M295.683 107.231L267.288 117.837L265.346 112.642L293.742 102.035L295.683 107.231Z" fill="#B82831"/>
<path d="M295.683 95.7244L267.288 106.331L265.346 101.136L293.742 90.5288L295.683 95.7244Z" fill="#B82831"/>
<path d="M295.683 84.2186L267.288 94.8257L265.346 89.6301L293.742 79.023L295.683 84.2186Z" fill="#B82831"/>
<path d="M295.683 72.7129L267.288 83.3194L265.346 78.1244L293.742 67.5173L295.683 72.7129Z" fill="#B82831"/>
<path d="M295.683 61.2071L267.288 71.8135L265.346 66.6186L293.742 56.0115L295.683 61.2071Z" fill="#B82831"/>
<path d="M295.683 49.7013L267.288 60.3078L265.346 55.1129L293.742 44.5058L295.683 49.7013Z" fill="#B82831"/>
<path d="M295.683 38.1955L267.288 48.8019L265.346 43.607L293.742 32.9999L295.683 38.1955Z" fill="#B82831"/>
<path d="M325.168 128.088L305.723 287.643H250.792L251.16 290.75H310.17L329.987 128.088H325.168Z" fill="#FF9900"/>
<path d="M325.169 128.088H231.346L250.792 287.643H305.723L325.169 128.088Z" fill="#FFC900"/>
<path d="M335 132.232H226.212V125.08C226.212 120.846 230.084 117.728 234.318 117.728H327.015C331.248 117.728 335 120.846 335 125.08V132.232Z" fill="#B82831"/>
<path d="M316.488 238.888H218.592V172.461H324.581L316.488 238.888Z" fill="#FCEBC6"/>
<path d="M188.914 99.9594L197.64 102.461C201.551 103.565 205.639 103.418 209.463 102.041L210.113 101.795C213.448 100.594 216.989 100.326 220.466 101.021L229.321 102.799V72.7102L219.027 70.8328C215.563 70.2032 212.015 70.5241 208.721 71.7597C204.725 73.2591 200.497 73.403 196.41 72.1734L188.914 69.8716V99.9594Z" fill="#88B735"/>
<path d="M189.951 123.944H187.878V70.0673H189.951V123.944Z" fill="#E85318"/>
<path d="M93.1931 146.554C69.5137 150.762 51.2558 161.341 50.0679 171.022L142.109 154.664C137.658 145.985 116.873 142.346 93.1931 146.554Z" fill="#E53225"/>
<path d="M50.0679 171.022C49.969 171.813 49.9738 172.6 50.111 173.376C51.9345 183.638 74.1799 188.265 99.7973 183.713C125.415 179.161 144.702 167.151 142.88 156.89C142.742 156.114 142.473 155.373 142.109 154.664L50.0679 171.022Z" fill="#E53225"/>
<path d="M50.3989 174.472L51.4328 178.413C52.5333 178.988 53.7514 179.512 55.0772 179.983C52.7156 178.435 51.1039 176.586 50.3989 174.472Z" fill="#B82831"/>
<path d="M142.109 154.664C142.473 155.373 142.742 156.114 142.88 156.89L142.472 154.601L142.109 154.664Z" fill="#B82831"/>
<path d="M57.0044 137.57L51.87 139.286C53.2072 138.839 54.823 140.254 55.4613 142.429L87.2772 250.913C87.9149 253.089 87.3418 255.235 86.0046 255.681L91.1396 253.967C92.4755 253.519 93.0479 251.375 92.4116 249.198L60.5964 140.714C59.958 138.538 58.3416 137.124 57.0044 137.57Z" fill="#FF9900"/>
<path d="M87.2771 250.913L55.4612 142.429C54.8229 140.254 53.2071 138.839 51.8699 139.286L51.5995 139.376C50.2616 139.822 49.6892 141.969 50.3275 144.145L82.1427 252.629C82.7804 254.804 84.3968 256.219 85.7341 255.773L86.0045 255.681C87.3417 255.235 87.9148 253.089 87.2771 250.913Z" fill="#FFC900"/>
<path d="M67.9235 122.895L62.7057 124.304C64.0658 123.938 65.6217 125.441 66.1645 127.645L93.2106 237.569C93.7528 239.772 93.0842 241.878 91.7247 242.244L96.9425 240.836C98.3013 240.468 98.9699 238.364 98.427 236.161L71.3809 126.236C70.8388 124.032 69.2829 122.529 67.9235 122.895Z" fill="#FF9900"/>
<path d="M93.2108 237.569L66.1647 127.645C65.6219 125.441 64.066 123.938 62.7059 124.304L62.4321 124.379C61.0734 124.745 60.4054 126.85 60.9469 129.053L87.993 238.976C88.5359 241.181 90.091 242.684 91.4505 242.318L91.7249 242.244C93.0844 241.878 93.753 239.772 93.2108 237.569Z" fill="#FFC900"/>
<path d="M72.5104 146.259L67.1951 147.202C68.5794 146.958 70.037 148.586 70.4346 150.822L90.2571 262.359C90.656 264.597 89.8474 266.629 88.4631 266.875L93.7778 265.93C95.1627 265.684 95.9706 263.652 95.5731 261.416L75.7513 149.877C75.353 147.642 73.8954 146.013 72.5104 146.259Z" fill="#FF9900"/>
<path d="M90.2571 262.359L70.4346 150.822C70.0371 148.586 68.5794 146.958 67.1951 147.202L66.9146 147.253C65.531 147.499 64.7224 149.531 65.12 151.767L84.9425 263.305C85.3407 265.543 86.799 267.171 88.1826 266.923L88.4631 266.875C89.8475 266.629 90.656 264.597 90.2571 262.359Z" fill="#FFC900"/>
<path d="M85.2586 119.89L79.944 120.835C81.3283 120.589 82.7873 122.217 83.1842 124.455L103.007 235.992C103.404 238.229 102.597 240.261 101.212 240.506L106.527 239.562C107.912 239.316 108.719 237.286 108.321 235.049L88.4995 123.511C88.1019 121.273 86.6436 119.645 85.2586 119.89Z" fill="#FF9900"/>
<path d="M103.007 235.992L83.1842 124.455C82.7873 122.217 81.3283 120.589 79.944 120.835L79.6635 120.886C78.2799 121.131 77.472 123.162 77.8695 125.399L97.692 236.938C98.0896 239.174 99.5472 240.803 100.932 240.557L101.212 240.506C102.597 240.261 103.404 238.229 103.007 235.992Z" fill="#FFC900"/>
<path d="M85.868 143.884L80.552 144.829C81.937 144.583 83.3946 146.212 83.7935 148.449L103.615 259.987C104.014 262.224 103.205 264.254 101.819 264.501L107.135 263.556C108.52 263.31 109.328 261.278 108.93 259.043L89.1075 147.504C88.71 145.267 87.2516 143.639 85.868 143.884Z" fill="#FF9900"/>
<path d="M103.615 259.987L83.7936 148.449C83.3947 146.212 81.937 144.583 80.552 144.829L80.2722 144.879C78.8879 145.125 78.08 147.156 78.4776 149.394L98.3001 260.93C98.6976 263.169 100.155 264.798 101.54 264.552L101.819 264.501C103.205 264.254 104.014 262.224 103.615 259.987Z" fill="#FFC900"/>
<path d="M95.5165 124.594L90.2012 125.538C91.5855 125.292 93.0445 126.921 93.442 129.158L113.264 240.695C113.661 242.932 112.853 244.964 111.469 245.209L116.784 244.265C118.168 244.019 118.977 241.988 118.579 239.751L98.7567 128.213C98.3592 125.976 96.9008 124.348 95.5165 124.594Z" fill="#FF9900"/>
<path d="M113.264 240.695L93.4421 129.158C93.0445 126.921 91.5855 125.292 90.2012 125.538L89.9214 125.589C88.5371 125.833 87.7299 127.865 88.1267 130.103L107.949 241.64C108.347 243.877 109.805 245.506 111.189 245.26L111.469 245.209C112.853 244.964 113.661 242.932 113.264 240.695Z" fill="#FFC900"/>
<path d="M110.359 116.432L105.043 117.377C106.428 117.13 107.886 118.759 108.284 120.996L128.106 232.534C128.504 234.77 127.696 236.801 126.311 237.048L131.627 236.104C133.011 235.858 133.819 233.825 133.421 231.589L113.599 120.052C113.201 117.814 111.743 116.186 110.359 116.432Z" fill="#FF9900"/>
<path d="M128.106 232.534L108.284 120.996C107.886 118.759 106.428 117.13 105.043 117.377L104.764 117.426C103.379 117.672 102.571 119.704 102.969 121.941L122.791 233.477C123.188 235.715 124.647 237.344 126.032 237.098L126.311 237.048C127.696 236.801 128.504 234.77 128.106 232.534Z" fill="#FFC900"/>
<path d="M107.243 134.561L101.929 135.507C103.314 135.259 104.772 136.888 105.168 139.125L124.991 250.662C125.388 252.899 124.582 254.931 123.197 255.177L128.512 254.234C129.896 253.987 130.704 251.954 130.307 249.718L110.484 138.182C110.087 135.944 108.629 134.315 107.243 134.561Z" fill="#FF9900"/>
<path d="M124.992 250.663L105.168 139.125C104.772 136.888 103.314 135.259 101.929 135.507L101.649 135.556C100.263 135.801 99.4563 137.833 99.8538 140.071L119.676 251.608C120.073 253.845 121.533 255.473 122.916 255.227L123.197 255.177C124.582 254.931 125.388 252.899 124.992 250.663Z" fill="#FFC900"/>
<path d="M125.03 107.903L119.635 108.253C121.04 108.162 122.363 109.936 122.573 112.196L133.085 224.857C133.296 227.118 132.318 229.041 130.913 229.131L136.308 228.782C137.714 228.69 138.692 226.768 138.481 224.508L127.97 111.845C127.758 109.586 126.436 107.811 125.03 107.903Z" fill="#FF9900"/>
<path d="M133.085 224.857L122.573 112.196C122.363 109.936 121.04 108.162 119.635 108.253L119.35 108.271C117.945 108.362 116.967 110.286 117.177 112.545L127.689 225.207C127.9 227.468 129.223 229.242 130.629 229.15L130.913 229.131C132.318 229.041 133.296 227.118 133.085 224.857Z" fill="#FFC900"/>
<path d="M120.602 132.188L115.286 133.132C116.671 132.886 118.128 134.514 118.527 136.752L138.348 248.29C138.746 250.525 137.939 252.559 136.555 252.804L141.869 251.858C143.253 251.613 144.062 249.582 143.664 247.344L123.841 135.807C123.444 133.569 121.986 131.942 120.602 132.188Z" fill="#FF9900"/>
<path d="M138.349 248.29L118.527 136.752C118.129 134.514 116.671 132.886 115.287 133.132L115.006 133.181C113.622 133.428 112.814 135.46 113.211 137.697L133.033 249.234C133.431 251.471 134.89 253.099 136.275 252.853L136.555 252.804C137.939 252.559 138.746 250.525 138.349 248.29Z" fill="#FFC900"/>
<path d="M138.95 166.635L151.879 275.983L80.371 288.693L81.2569 292.07L157.264 278.562L142.88 156.89C143.442 160.063 141.985 163.401 138.95 166.635Z" fill="#E53225"/>
<path d="M138.951 166.635C132.168 173.863 117.496 180.567 99.7973 183.713C80.6105 187.123 63.3172 185.383 55.0772 179.983C53.7514 179.512 52.5332 178.988 51.4327 178.413L80.371 288.693L151.879 275.983L138.951 166.635Z" fill="#B82831"/>
<path d="M127.15 262.653L99.8276 267.509C90.7333 269.126 81.9713 263.007 80.3549 253.913L74.8277 222.812C73.2113 213.718 79.3297 204.954 88.4234 203.339L115.746 198.483C124.839 196.867 133.602 202.985 135.217 212.078L140.745 243.181C142.362 252.275 136.242 261.038 127.15 262.653Z" fill="#FCEBC6"/>
<path d="M267.689 237.911H110.912C109.765 237.911 108.774 237.911 108.234 236.874H262.554C264.272 236.874 265.666 235.224 265.666 233.511C265.666 232.943 265.501 232.731 265.233 231.694H267.689C269.408 231.694 270.801 233.088 270.801 234.803C270.801 236.515 269.408 237.911 267.689 237.911Z" fill="#FF9900"/>
<path d="M262.554 236.813H108.234C107.965 236.354 107.801 235.828 107.801 235.259C107.801 233.544 109.194 232.157 110.912 232.157H233.535H256.471H265.233C265.501 232.614 265.666 233.143 265.666 233.71C265.666 235.423 264.272 236.813 262.554 236.813Z" fill="#FFC301"/>
<path d="M267.689 232.157H110.912C109.765 232.157 108.774 231.529 108.234 230.608H262.554C264.272 230.608 265.666 229.22 265.666 227.505C265.666 226.936 265.501 226.409 265.233 225.95H267.689C269.408 225.95 270.801 227.341 270.801 229.053C270.801 230.765 269.408 232.157 267.689 232.157Z" fill="#74962C"/>
<path d="M262.554 230.608H108.234C107.965 230.149 107.801 229.623 107.801 229.053C107.801 227.341 109.194 225.951 110.912 225.951H233.535H256.471H265.233C265.501 226.409 265.666 226.936 265.666 227.505C265.666 229.22 264.272 230.608 262.554 230.608Z" fill="#88B735"/>
<path d="M270.327 238.888C271.725 240.78 272.563 243.107 272.563 245.626C272.563 251.911 267.404 257.053 261.097 257.053H109.791C108.12 257.053 106.535 256.685 105.1 256.036C107.192 258.87 110.549 260.726 114.329 260.726H265.635C271.943 260.726 277.101 255.583 277.101 249.298C277.101 244.677 274.308 240.682 270.327 238.888Z" fill="#3A240F"/>
<path d="M261.097 257.053C267.403 257.053 272.563 251.911 272.563 245.626C272.563 243.107 271.725 240.781 270.327 238.888C268.892 238.239 267.307 237.871 265.635 237.871H114.329C108.023 237.871 102.864 243.011 102.864 249.298C102.864 251.815 103.701 254.141 105.1 256.036C106.535 256.685 108.12 257.053 109.791 257.053H261.097Z" fill="#482F14"/>
<path d="M267.689 260.359H265.755C265.819 260.61 265.864 260.863 265.864 261.134C265.864 262.847 264.471 264.235 262.752 264.235H107.91C108.257 265.573 109.464 266.565 110.912 266.565H267.689C269.408 266.565 270.801 265.174 270.801 263.462C270.801 261.749 269.408 260.359 267.689 260.359Z" fill="#E53225"/>
<path d="M265.864 261.134C265.864 260.863 265.819 260.61 265.755 260.359H110.912C109.194 260.359 107.801 261.749 107.801 263.462C107.801 263.729 107.845 263.987 107.909 264.235H262.752C264.471 264.235 265.864 262.847 265.864 261.134Z" fill="#B82831"/>
<path d="M276.313 266.362C276.758 267.448 276.98 268.63 276.98 269.874V274.051V274.528C276.98 280.813 271.979 285.869 265.671 285.869H105.16C103.324 285.869 101.591 285.456 100.048 284.683C101.937 288.426 105.82 291.049 110.289 291.049H270.801C277.107 291.049 282.161 285.924 282.161 279.64V279.164V274.986C282.161 271.086 279.726 267.75 276.313 266.362Z" fill="#D35E24"/>
<path d="M265.671 285.869C271.979 285.869 276.98 280.813 276.98 274.528V274.051V269.874C276.98 268.63 276.811 267.702 276.366 266.619C275.278 266.175 274.17 266.184 272.922 266.184H108.169C103.007 266.184 98.7762 269.841 98.7762 274.986V279.164V279.64C98.7762 281.471 99.2478 283.154 100.025 284.692C101.568 285.465 103.324 285.869 105.16 285.869H265.671Z" fill="#E97027"/>
<path d="M141.323 283.272C151.871 283.272 160.423 274.75 160.423 264.235H122.223C122.223 274.75 130.775 283.272 141.323 283.272Z" fill="#B82831"/>
<path d="M141.323 280.267C150.207 280.267 157.408 273.09 157.408 264.235H125.237C125.237 273.09 132.439 280.267 141.323 280.267Z" fill="#F94538"/>
<path d="M138.481 273.712L141.323 264.235L144.165 273.712C144.734 275.609 143.309 277.515 141.323 277.515C139.338 277.515 137.913 275.609 138.481 273.712Z" fill="#B82831"/>
<path d="M149.47 272.947L144.756 264.242L153.489 268.94C155.236 269.881 155.581 272.234 154.177 273.633C152.773 275.032 150.413 274.688 149.47 272.947Z" fill="#B82831"/>
<path d="M133.372 272.947L138.086 264.242L129.352 268.94C127.605 269.881 127.26 272.234 128.664 273.633C130.069 275.032 132.429 274.688 133.372 272.947Z" fill="#B82831"/>
<path d="M235.029 249.806C245.576 249.806 254.128 241.282 254.128 230.769H215.929C215.929 241.282 224.479 249.806 235.029 249.806Z" fill="#74962C"/>
<path d="M235.029 246.803C243.912 246.803 251.115 239.623 251.115 230.769H218.943C218.943 239.623 226.144 246.803 235.029 246.803Z" fill="#88B735"/>
<path d="M232.777 239.679L234.589 233.634L236.403 239.679C236.765 240.889 235.857 242.105 234.589 242.105C233.322 242.105 232.413 240.889 232.777 239.679Z" fill="#74962C"/>
<path d="M239.786 239.191L236.778 233.639L242.35 236.634C243.464 237.235 243.684 238.735 242.789 239.627C241.892 240.522 240.388 240.301 239.786 239.191Z" fill="#74962C"/>
<path d="M229.517 239.191L232.524 233.639L226.953 236.634C225.839 237.235 225.617 238.735 226.514 239.627C227.409 240.522 228.916 240.301 229.517 239.191Z" fill="#74962C"/>
<path d="M164.341 236.874H163.318L137.59 249.267L139.186 250.173C139.803 250.529 140.565 250.551 141.183 250.195L164.341 236.874Z" fill="#FF9900"/>
<path d="M116.028 236.813L137.59 249.236C138.88 249.98 140.467 249.98 141.757 249.236L163.318 236.813H116.028Z" fill="#FFC301"/>
<path d="M252.309 146.466C267.219 162.877 275.944 184.645 275.944 208.528V209.011C275.944 215.37 270.998 220.297 264.617 220.297H102.222C100.723 220.297 99.2936 220.371 97.9758 219.849C99.681 224.128 103.874 227.551 108.756 227.551H271.153C277.532 227.551 283.197 221.882 283.197 215.522V215.042C283.197 187.844 271.059 163.389 252.309 146.466Z" fill="#D35E24"/>
<path d="M264.617 220.297C270.997 220.297 275.944 215.37 275.944 209.011V208.528C275.944 184.645 266.996 162.877 252.086 146.466C235.62 131.605 213.621 122.549 189.66 122.549C138.409 122.549 96.7037 163.96 96.7037 215.042V215.522C96.7037 217.016 97.227 218.304 97.7504 219.618C99.0674 220.139 100.723 220.297 102.222 220.297H264.617Z" fill="#E97027"/>
<path d="M171.048 166.084C171.803 166.838 171.243 168.617 169.796 170.06C168.348 171.502 166.563 172.061 165.808 171.307C165.052 170.555 165.614 168.776 167.061 167.335C168.508 165.892 170.294 165.332 171.048 166.084Z" fill="#FCEBC6"/>
<path d="M148.955 151.193C146.908 151.171 145.24 152.014 145.228 153.079C145.216 154.143 146.866 155.025 148.913 155.047C150.958 155.07 152.627 154.225 152.639 153.161C152.65 152.096 151 151.215 148.955 151.193Z" fill="#FCEBC6"/>
<path d="M169.76 137.341C170.515 138.092 169.953 139.872 168.507 141.314C167.059 142.756 165.274 143.317 164.519 142.565C163.765 141.811 164.325 140.032 165.773 138.59C167.219 137.147 169.005 136.588 169.76 137.341Z" fill="#FCEBC6"/>
<path d="M211.166 141.516C211.922 142.268 211.36 144.047 209.913 145.49C208.467 146.932 206.68 147.492 205.927 146.739C205.171 145.986 205.733 144.207 207.179 142.765C208.627 141.322 210.412 140.763 211.166 141.516Z" fill="#FCEBC6"/>
<path d="M188.125 152.519C188.88 151.766 190.666 152.324 192.112 153.767C193.559 155.209 194.12 156.988 193.365 157.741C192.611 158.494 190.826 157.934 189.377 156.493C187.931 155.05 187.37 153.27 188.125 152.519Z" fill="#FCEBC6"/>
<path d="M192.555 135.338C191.798 134.584 192.36 132.805 193.806 131.364C195.254 129.921 197.038 129.363 197.792 130.115C198.549 130.867 197.986 132.646 196.541 134.089C195.093 135.53 193.309 136.09 192.555 135.338Z" fill="#FCEBC6"/>
<path d="M213.015 158.41C213.769 157.658 215.555 158.217 217.002 159.66C218.45 161.102 219.011 162.881 218.257 163.634C217.501 164.386 215.716 163.828 214.267 162.385C212.821 160.943 212.261 159.164 213.015 158.41Z" fill="#FCEBC6"/>
<path d="M231.655 143.234C232.409 142.481 234.196 143.04 235.642 144.482C237.088 145.925 237.65 147.705 236.897 148.457C236.14 149.21 234.356 148.65 232.908 147.207C231.462 145.766 230.9 143.986 231.655 143.234Z" fill="#FCEBC6"/>
<path d="M475.25 163.8C480.55 165.9 484.85 169.1 488.15 173.4C491.55 177.7 493.25 183.25 493.25 190.05C493.25 201.95 489.85 210.25 483.05 214.95C476.25 219.65 468.15 222 458.75 222H421.4C418.8 222 416.6 221.15 414.8 219.45C413.1 217.65 412.25 215.45 412.25 212.85V126.15C412.25 123.55 413.1 121.4 414.8 119.7C416.6 117.9 418.8 117 421.4 117H459.2C478.2 117 487.7 125.9 487.7 143.7C487.7 148.2 486.6 152.2 484.4 155.7C482.3 159.1 479.25 161.8 475.25 163.8ZM468.2 147C468.2 142.9 467.15 139.85 465.05 137.85C463.05 135.75 460.2 134.7 456.5 134.7H431.75V158.1H456.95C459.95 158.1 462.55 157.1 464.75 155.1C467.05 153.1 468.2 150.4 468.2 147ZM458.75 204.75C463.45 204.75 467.1 203.5 469.7 201C472.4 198.5 473.75 194.85 473.75 190.05C473.75 184.15 472.2 180.3 469.1 178.5C466 176.7 462.2 175.8 457.7 175.8H431.75V204.75H458.75ZM568.591 141.75C571.191 141.75 573.341 142.65 575.041 144.45C576.741 146.15 577.591 148.3 577.591 150.9V189C577.591 199.8 574.591 208.25 568.591 214.35C562.691 220.45 554.241 223.5 543.241 223.5C532.241 223.5 523.791 220.45 517.891 214.35C511.991 208.25 509.041 199.8 509.041 189V150.9C509.041 148.3 509.891 146.15 511.591 144.45C513.291 142.65 515.441 141.75 518.041 141.75C520.641 141.75 522.791 142.65 524.491 144.45C526.191 146.15 527.041 148.3 527.041 150.9V189C527.041 195.1 528.391 199.65 531.091 202.65C533.791 205.55 537.841 207 543.241 207C548.741 207 552.841 205.55 555.541 202.65C558.241 199.65 559.591 195.1 559.591 189V150.9C559.591 148.3 560.441 146.15 562.141 144.45C563.841 142.65 565.991 141.75 568.591 141.75ZM638.778 140.25C641.778 140.25 644.278 141.1 646.278 142.8C648.378 144.5 649.428 146.5 649.428 148.8C649.428 151.9 648.628 154.25 647.028 155.85C645.428 157.35 643.528 158.1 641.328 158.1C639.828 158.1 638.128 157.75 636.228 157.05C635.928 156.95 635.228 156.75 634.128 156.45C633.128 156.15 632.028 156 630.828 156C628.228 156 625.728 156.8 623.328 158.4C620.928 160 618.928 162.45 617.328 165.75C615.828 168.95 615.078 172.8 615.078 177.3V212.85C615.078 215.45 614.228 217.65 612.528 219.45C610.828 221.15 608.678 222 606.078 222C603.478 222 601.328 221.15 599.628 219.45C597.928 217.65 597.078 215.45 597.078 212.85V150.9C597.078 148.3 597.928 146.15 599.628 144.45C601.328 142.65 603.478 141.75 606.078 141.75C608.678 141.75 610.828 142.65 612.528 144.45C614.228 146.15 615.078 148.3 615.078 150.9V152.85C617.378 148.75 620.678 145.65 624.978 143.55C629.278 141.35 633.878 140.25 638.778 140.25ZM726.37 140.25C728.97 140.25 731.12 141.1 732.82 142.8C734.52 144.5 735.37 146.7 735.37 149.4V216.15C735.37 228.35 731.57 237.35 723.97 243.15C716.47 249.05 706.92 252 695.32 252C692.32 252 688.17 251.5 682.87 250.5C677.67 249.5 673.97 248.5 671.77 247.5C666.87 245.4 664.42 242.5 664.42 238.8C664.42 238.1 664.57 237.3 664.87 236.4C665.47 234.2 666.47 232.5 667.87 231.3C669.37 230.2 670.97 229.65 672.67 229.65C673.67 229.65 674.62 229.8 675.52 230.1C675.92 230.2 678.37 231.1 682.87 232.8C687.47 234.6 691.62 235.5 695.32 235.5C702.72 235.5 708.22 234 711.82 231C715.52 228.1 717.37 223.95 717.37 218.55V211.35C715.17 214.45 711.82 217.25 707.32 219.75C702.92 222.25 698.17 223.5 693.07 223.5C686.07 223.5 679.67 221.75 673.87 218.25C668.17 214.65 663.67 209.7 660.37 203.4C657.07 197.1 655.42 189.95 655.42 181.95C655.42 173.95 657.02 166.8 660.22 160.5C663.52 154.1 667.97 149.15 673.57 145.65C679.27 142.05 685.57 140.25 692.47 140.25C697.57 140.25 702.32 141.3 706.72 143.4C711.12 145.5 714.67 148.05 717.37 151.05V149.4C717.37 146.8 718.22 144.65 719.92 142.95C721.62 141.15 723.77 140.25 726.37 140.25ZM695.32 207C702.02 207 707.47 204.65 711.67 199.95C715.97 195.15 718.12 189.15 718.12 181.95C718.12 174.75 715.97 168.75 711.67 163.95C707.47 159.15 702.02 156.75 695.32 156.75C688.62 156.75 683.17 159.15 678.97 163.95C674.77 168.75 672.67 174.75 672.67 181.95C672.67 189.15 674.77 195.15 678.97 199.95C683.17 204.65 688.62 207 695.32 207ZM823.912 180C823.812 182.4 822.862 184.35 821.062 185.85C819.262 187.35 817.162 188.1 814.762 188.1H765.262C766.462 194 769.212 198.65 773.512 202.05C777.812 205.35 782.662 207 788.062 207C792.162 207 795.362 206.65 797.662 205.95C799.962 205.15 801.762 204.35 803.062 203.55C804.462 202.65 805.412 202.05 805.912 201.75C807.712 200.85 809.412 200.4 811.012 200.4C813.112 200.4 814.912 201.15 816.412 202.65C817.912 204.15 818.662 205.9 818.662 207.9C818.662 210.6 817.262 213.05 814.462 215.25C811.662 217.55 807.912 219.5 803.212 221.1C798.512 222.7 793.762 223.5 788.962 223.5C780.562 223.5 773.212 221.75 766.912 218.25C760.712 214.75 755.912 209.95 752.512 203.85C749.112 197.65 747.412 190.7 747.412 183C747.412 174.4 749.212 166.85 752.812 160.35C756.412 153.85 761.162 148.9 767.062 145.5C772.962 142 779.262 140.25 785.962 140.25C792.562 140.25 798.762 142.05 804.562 145.65C810.462 149.25 815.162 154.1 818.662 160.2C822.162 166.3 823.912 172.9 823.912 180ZM785.962 156.75C774.362 156.75 767.512 162.2 765.412 173.1H804.712V172.05C804.312 167.85 802.262 164.25 798.562 161.25C794.862 158.25 790.662 156.75 785.962 156.75ZM880.624 140.25C883.624 140.25 886.124 141.1 888.124 142.8C890.224 144.5 891.274 146.5 891.274 148.8C891.274 151.9 890.474 154.25 888.874 155.85C887.274 157.35 885.374 158.1 883.174 158.1C881.674 158.1 879.974 157.75 878.074 157.05C877.774 156.95 877.074 156.75 875.974 156.45C874.974 156.15 873.874 156 872.674 156C870.074 156 867.574 156.8 865.174 158.4C862.774 160 860.774 162.45 859.174 165.75C857.674 168.95 856.924 172.8 856.924 177.3V212.85C856.924 215.45 856.074 217.65 854.374 219.45C852.674 221.15 850.524 222 847.924 222C845.324 222 843.174 221.15 841.474 219.45C839.774 217.65 838.924 215.45 838.924 212.85V150.9C838.924 148.3 839.774 146.15 841.474 144.45C843.174 142.65 845.324 141.75 847.924 141.75C850.524 141.75 852.674 142.65 854.374 144.45C856.074 146.15 856.924 148.3 856.924 150.9V152.85C859.224 148.75 862.524 145.65 866.824 143.55C871.124 141.35 875.724 140.25 880.624 140.25ZM981.254 223.5C974.054 223.5 967.654 222.6 962.054 220.8C956.454 219 951.204 215.95 946.304 211.65C943.604 209.25 942.254 206.6 942.254 203.7C942.254 201.4 943.104 199.4 944.804 197.7C946.504 195.9 948.554 195 950.954 195C952.854 195 954.554 195.6 956.054 196.8C960.054 200.1 963.954 202.5 967.754 204C971.554 205.5 976.054 206.25 981.254 206.25C986.854 206.25 991.654 205 995.654 202.5C999.754 200 1001.8 196.9 1001.8 193.2C1001.8 188.7 999.804 185.2 995.804 182.7C991.804 180.1 985.454 178.15 976.754 176.85C954.854 173.65 943.904 163.45 943.904 146.25C943.904 139.95 945.554 134.5 948.854 129.9C952.154 125.2 956.654 121.65 962.354 119.25C968.054 116.75 974.404 115.5 981.404 115.5C987.704 115.5 993.604 116.45 999.104 118.35C1004.7 120.25 1009.35 122.75 1013.05 125.85C1015.95 128.15 1017.4 130.8 1017.4 133.8C1017.4 136.1 1016.55 138.15 1014.85 139.95C1013.15 141.65 1011.15 142.5 1008.85 142.5C1007.35 142.5 1006 142.05 1004.8 141.15C1002.2 139.05 998.554 137.15 993.854 135.45C989.254 133.65 985.104 132.75 981.404 132.75C975.104 132.75 970.204 133.95 966.704 136.35C963.304 138.65 961.604 141.7 961.604 145.5C961.604 149.8 963.354 153.05 966.854 155.25C970.454 157.45 976.054 159.25 983.654 160.65C992.254 162.15 999.104 164.1 1004.2 166.5C1009.4 168.8 1013.3 172 1015.9 176.1C1018.5 180.1 1019.8 185.45 1019.8 192.15C1019.8 198.45 1018 204 1014.4 208.8C1010.9 213.5 1006.2 217.15 1000.3 219.75C994.404 222.25 988.054 223.5 981.254 223.5ZM1077.66 140.25C1087.56 140.25 1094.41 143.3 1098.21 149.4C1102.01 155.4 1103.91 163.75 1103.91 174.45V212.85C1103.91 215.45 1103.06 217.65 1101.36 219.45C1099.66 221.15 1097.51 222 1094.91 222C1092.31 222 1090.16 221.15 1088.46 219.45C1086.76 217.65 1085.91 215.45 1085.91 212.85V174.45C1085.91 168.95 1084.81 164.65 1082.61 161.55C1080.51 158.35 1076.76 156.75 1071.36 156.75C1065.76 156.75 1061.36 158.45 1058.16 161.85C1055.06 165.15 1053.51 169.35 1053.51 174.45V212.85C1053.51 215.45 1052.66 217.65 1050.96 219.45C1049.26 221.15 1047.11 222 1044.51 222C1041.91 222 1039.76 221.15 1038.06 219.45C1036.36 217.65 1035.51 215.45 1035.51 212.85V120.15C1035.51 117.55 1036.36 115.4 1038.06 113.7C1039.76 111.9 1041.91 111 1044.51 111C1047.11 111 1049.26 111.9 1050.96 113.7C1052.66 115.4 1053.51 117.55 1053.51 120.15V153.3C1056.21 149.7 1059.61 146.65 1063.71 144.15C1067.91 141.55 1072.56 140.25 1077.66 140.25ZM1200.5 181.95C1200.5 189.95 1198.7 197.15 1195.1 203.55C1191.5 209.85 1186.55 214.75 1180.25 218.25C1174.05 221.75 1167.2 223.5 1159.7 223.5C1152.1 223.5 1145.2 221.75 1139 218.25C1132.8 214.75 1127.9 209.85 1124.3 203.55C1120.7 197.15 1118.9 189.95 1118.9 181.95C1118.9 173.95 1120.7 166.8 1124.3 160.5C1127.9 154.1 1132.8 149.15 1139 145.65C1145.2 142.05 1152.1 140.25 1159.7 140.25C1167.2 140.25 1174.05 142.05 1180.25 145.65C1186.55 149.15 1191.5 154.1 1195.1 160.5C1198.7 166.8 1200.5 173.95 1200.5 181.95ZM1182.5 181.95C1182.5 177.05 1181.45 172.7 1179.35 168.9C1177.35 165 1174.6 162 1171.1 159.9C1167.7 157.8 1163.9 156.75 1159.7 156.75C1155.5 156.75 1151.65 157.8 1148.15 159.9C1144.75 162 1142 165 1139.9 168.9C1137.9 172.7 1136.9 177.05 1136.9 181.95C1136.9 186.85 1137.9 191.2 1139.9 195C1142 198.8 1144.75 201.75 1148.15 203.85C1151.65 205.95 1155.5 207 1159.7 207C1163.9 207 1167.7 205.95 1171.1 203.85C1174.6 201.75 1177.35 198.8 1179.35 195C1181.45 191.2 1182.5 186.85 1182.5 181.95ZM1257.09 140.25C1263.99 140.25 1270.24 142.05 1275.84 145.65C1281.44 149.15 1285.84 154.05 1289.04 160.35C1292.34 166.65 1293.99 173.8 1293.99 181.8C1293.99 189.8 1292.39 197 1289.19 203.4C1285.99 209.7 1281.59 214.65 1275.99 218.25C1270.49 221.75 1264.39 223.5 1257.69 223.5C1252.89 223.5 1248.34 222.55 1244.04 220.65C1239.84 218.65 1236.34 216.25 1233.54 213.45V242.85C1233.54 245.45 1232.69 247.6 1230.99 249.3C1229.29 251.1 1227.14 252 1224.54 252C1221.94 252 1219.79 251.15 1218.09 249.45C1216.39 247.75 1215.54 245.55 1215.54 242.85V150.9C1215.54 148.3 1216.39 146.15 1218.09 144.45C1219.79 142.65 1221.94 141.75 1224.54 141.75C1227.14 141.75 1229.29 142.65 1230.99 144.45C1232.69 146.15 1233.54 148.3 1233.54 150.9V151.5C1235.94 148.5 1239.29 145.9 1243.59 143.7C1247.89 141.4 1252.39 140.25 1257.09 140.25ZM1254.84 207C1261.24 207 1266.49 204.6 1270.59 199.8C1274.69 195 1276.74 189 1276.74 181.8C1276.74 174.6 1274.69 168.65 1270.59 163.95C1266.59 159.15 1261.34 156.75 1254.84 156.75C1248.34 156.75 1243.04 159.15 1238.94 163.95C1234.84 168.65 1232.79 174.6 1232.79 181.8C1232.79 189 1234.84 195 1238.94 199.8C1243.04 204.6 1248.34 207 1254.84 207Z" fill="white"/>
</svg>
